<svg xmlns="http://www.w3.org/2000/svg" width="512" height="512" fill="none"><defs><linearGradient id="a" x1="96" x2="424" y1="72" y2="440" gradientUnits="userSpaceOnUse"><stop stop-color="#122033"/><stop offset="1" stop-color="#0A1422"/></linearGradient><linearGradient id="b" x1="156" x2="364" y1="128" y2="384" gradientUnits="userSpaceOnUse"><stop stop-color="#7DD3FC"/><stop offset="1" stop-color="#2563EB"/></linearGradient><linearGradient id="c" x1="172" x2="338" y1="140" y2="308" gradientUnits="userSpaceOnUse"><stop stop-color="#F8FAFC"/><stop offset="1" stop-color="#E2E8F0"/></linearGradient></defs><rect width="384" height="384" x="64" y="64" fill="url(#a)" rx="108"/><rect width="384" height="384" x="64" y="64" stroke="#1E293B" stroke-width="12" rx="108"/><path fill="url(#b)" d="M256 132c-68.483 0-124 55.517-124 124s55.517 124 124 124 124-55.517 124-124-55.517-124-124-124m0 208c-46.392 0-84-37.608-84-84s37.608-84 84-84 84 37.608 84 84-37.608 84-84 84"/><path fill="url(#c)" d="M256 204c11.046 0 20 8.954 20 20v26.322l35.838 35.838c7.811 7.811 7.811 20.477 0 28.288s-20.477 7.811-28.288 0l-41.692-41.691A20 20 0 0 1 236 258.615V224c0-11.046 8.954-20 20-20"/><circle cx="256" cy="256" r="20" fill="#38BDF8"/></svg>
